inDegrees=no
num_controls=7
num_derivatives=13
num_iterations=113
num_multipliers=7
num_parameters=0
num_slacks=7
num_states=26
objective=5.603741
objective_accelerations=0.807636
objective_balance=0.026273
objective_effort=0.246677
objective_height=4.403062
objective_ligament=0.120093
solver_duration=1341.122207
status=Solve_Succeeded
success=true
DataType=double
version=3
OpenSimVersion=4.4-2022-07-23-0e9fedc
endheader
time	/jointset/ground_pelvis/pelvis_tilt/value	/jointset/ground_pelvis/pelvis_tx/value	/jointset/ground_pelvis/pelvis_ty/value	/jointset/hip_l/hip_flexion_l/value	/jointset/hip_l/hip_adduction_l/value	/jointset/hip_l/hip_rotation_l/value	/jointset/back/lumbar_extension/value	/jointset/patellofemoral_l/patellar_flexion_l/value	/jointset/knee_l/knee_flexion_l/value	/jointset/knee_l/knee_adduction_l/value	/jointset/knee_l/knee_rotation_l/value	/jointset/ankle_l/ankle_angle_l/value	/jointset/subtalar_l/subtalar_angle_l/value	/jointset/ground_pelvis/pelvis_tilt/speed	/jointset/ground_pelvis/pelvis_tx/speed	/jointset/ground_pelvis/pelvis_ty/speed	/jointset/hip_l/hip_flexion_l/speed	/jointset/hip_l/hip_adduction_l/speed	/jointset/hip_l/hip_rotation_l/speed	/jointset/back/lumbar_extension/speed	/jointset/patellofemoral_l/patellar_flexion_l/speed	/jointset/knee_l/knee_flexion_l/speed	/jointset/knee_l/knee_adduction_l/speed	/jointset/knee_l/knee_rotation_l/speed	/jointset/ankle_l/ankle_angle_l/speed	/jointset/subtalar_l/subtalar_angle_l/speed	/forceset/tau_hip_flexion_l	/forceset/tau_hip_adduction_l	/forceset/tau_hip_rotation_l	/forceset/tau_knee_flexion_l	/forceset/tau_ankle_angle_l	/forceset/tau_subtalar_angle_l	/forceset/tau_lumbar_extension	lambda_cid13_p0	lambda_cid13_p1	lambda_cid13_p2	lambda_cid13_p3	lambda_cid13_p4	lambda_cid13_p5	lambda_cid14_p0	/jointset/ground_pelvis/pelvis_tilt/accel	/jointset/ground_pelvis/pelvis_tx/accel	/jointset/ground_pelvis/pelvis_ty/accel	/jointset/hip_l/hip_flexion_l/accel	/jointset/hip_l/hip_adduction_l/accel	/jointset/hip_l/hip_rotation_l/accel	/jointset/back/lumbar_extension/accel	/jointset/patellofemoral_l/patellar_flexion_l/accel	/jointset/knee_l/knee_flexion_l/accel	/jointset/knee_l/knee_adduction_l/accel	/jointset/knee_l/knee_rotation_l/accel	/jointset/ankle_l/ankle_angle_l/accel	/jointset/subtalar_l/subtalar_angle_l/accel	gamma_cid13_p0	gamma_cid13_p1	gamma_cid13_p2	gamma_cid13_p3	gamma_cid13_p4	gamma_cid13_p5	gamma_cid14_p0
0	0.05553102390717193	0.1041544774514297	0.9052094262135169	0.1266917050730164	-0.3496749142813111	-0.2403645191656884	-0.2144974744115991	0.2051547269257098	0.2051547269256735	-0.1323572716488598	-0.1652764762092955	0.09024399430361882	0.1013600698192159	0	0	0	0	0	0	0	0	0	0	0	0	0	0.1115499168683572	-0.04132546450709496	-0.003529962963393248	-0.1936151094173573	0.06346210222308982	-0.05197551589039232	-0.05336143896122208	-10.35305955716926	22.4961655831988	-1.709197564331775	30.66061838939714	-446.9900747298715	-62.69679673609329	-26.11291185268052	-6.449100532854363	-2.939983735363576	-1.00207682019882	16.05402788101598	-0.1526749747782415	2.735359188074145	-4.29109146487458	8.569622407076837	8.569622407076693	1.869555051474593	-0.6567761657992299	-0.3442029399584318	-0.3106819536002912	1.910746707597897e-08	2.122058035052232e-07	-5.846193446297101e-08	6.396795265566073e-10	1.340821940783442e-07	1.12725222026333e-07	2.733430540695346e-08
0.01	0.05521877939009572	0.1040098763019538	0.9051607090818157	0.1274738612464297	-0.3496818875534495	-0.2402253605582289	-0.2147172371702534	0.205572125315164	0.205572125315548	-0.132265673373063	-0.1653026694341176	0.09022595598711698	0.1013449625341427	-0.06225411522674084	-0.0287199393677606	-0.00971944864179523	0.1557188760040253	-0.001393718919599827	0.02774787678532922	-0.04362871536103657	0.0830769945036031	0.08307699450359822	0.01820732408603142	-0.005154050752849779	-0.003522335664056807	-0.002992077614962382	0.1108895543278428	-0.04850363008648016	-0.003630376629265508	-0.1960222830941336	0.06728343438215872	-0.04637213117102976	-0.05227378328793424	-8.719455134250998	19.87721925455885	-1.406615512488264	28.14559555685115	-447.276541351283	-68.31148910341203	-26.11315473831674	-6.084351333453343	-2.807955332879272	-0.9532554148595604	15.2239628652544	-0.1326055095502924	2.781940982860586	-4.350186114781695	8.116329991366372	8.116329991366024	1.779500978533021	-0.4320449091730851	-0.3434416965328863	-0.2890905566260764	4.68667315442877e-10	2.756041888765361e-07	-3.171953289111965e-08	2.126712444039491e-08	-7.875049288520705e-08	7.544883092791428e-08	3.828227262069234e-08
0.02	0.05428983685756302	0.1035840844997186	0.9050155221579574	0.1297918352608121	-0.3497027750464972	-0.2398112353709776	-0.2153635719911304	0.2068082120539311	0.2068082120539165	-0.1319953658776335	-0.1653778682417465	0.09017525575062924	0.1013008104946836	-0.1233396030880244	-0.05623813055186216	-0.01929395843138023	0.3071635682144544	-0.002782844199053827	0.05499331593459273	-0.08531441244449187	0.163737669781764	0.1637376697817599	0.03574184382662997	-0.009801116671551733	-0.006532384004277541	-0.005808950877223129	0.1102291917857465	-0.05568179566645514	-0.003730790298577655	-0.1984294567717807	0.07110476654062635	-0.04076874645245589	-0.0511861276152324	-7.046452277520868	17.25644753937113	-1.109538690723713	25.7196232003663	-446.7796015087949	-73.77413082300085	-26.11365340518219	-6.215375059761957	-2.699634098632642	-0.9730890497567402	15.19919112229689	-0.1517562467491334	2.634871660861001	-3.902487809357804	8.086358561988527	8.086358561989522	1.734994182387923	-0.5553791989698399	-0.2417454751922336	-0.2756410830603317	-1.817013244509322e-08	3.39002574247849e-07	-4.977131319268288e-09	4.189456935423321e-08	-2.915831798487583e-07	3.817243982949556e-08	4.923023983443123e-08
0.03	0.05275593868210982	0.102888232985583	0.9047749833062686	0.1336042000243284	-0.3497374437429752	-0.2391282602913442	-0.2164163102577636	0.2088392685952255	0.2088392685951292	-0.1315529283385035	-0.1654981395618081	0.0900959730139186	0.1012291422236318	-0.1831653041077444	-0.08281720320690766	-0.02881258281173465	0.4546136095075854	-0.004144778956915496	0.08149525975437687	-0.1249119628368892	0.2420589635472203	0.2420589635472131	0.05262133668663709	-0.01418242184238552	-0.009354861770139994	-0.008526340846522382	0.1060370705415355	-0.05291159662482899	-0.003225486059213961	-0.1947890941205592	0.06829464700680721	-0.04140526840897082	-0.04791986203215882	-7.906740380217262	17.57408281691798	-1.035175184776628	25.67566069874569	-445.8858407348721	-72.29417207940254	-26.11407373366006	-5.824954315297702	-2.619790028846694	-0.9411239444449333	14.41354390374066	-0.1275452396076953	2.641901813698502	-3.940196946017303	7.642803654773672	7.642803654772258	1.645836308377674	-0.3689066449277484	-0.3070929367568523	-0.2700861694803441	-2.539573249660059e-08	3.67858301530178e-07	2.522217853382275e-09	5.11639902736566e-08	-4.097459595747165e-07	1.980132752377281e-08	5.645693271963421e-08
